<svg xmlns="http://www.w3.org/2000/svg" xmlns:xlink="http://www.w3.org/1999/xlink" width="350" height="200" fill="#fff" font-family="Roboto" version="1.1" viewBox="0 0 350 200"><rect id="background" width="350" height="200" fill="#1a1a1a"/><g id="header"><rect width="350" height="40" fill="#333"/><g id="logo" transform="translate(4, 4)"><ellipse cx="16" cy="16" rx="14" ry="14"/><path fill="#000" d="M14.984 4.047c-8.34.726-13.418 9.488-9.8 16.902.73 1.496 2.234 3.41 2.476 3.149.055-.055.399-.418.77-.809l.675-.707-.433-.488c-5.621-6.39-.836-16.242 7.75-15.938 8.305.293 12.422 10.102 6.758 16.106-.426.453-.48.304.468 1.23l.79.762.242-.234c1.422-1.372 2.625-3.602 3.074-5.696 1.668-7.8-4.75-14.976-12.77-14.277m2.387 8.86c-1.84 1.523-3.375 2.8-3.41 2.831-.063.059 1.89 2.219 2.004 2.219.05 0 5.812-6.746 5.808-6.797-.011-.082-.918-1.027-.988-1.027-.035 0-1.574 1.246-3.414 2.773"/></g><text id="title" x="42" y="28" font-family="Roboto Condensed" font-size="24">Speed Test</text><text id="date" x="345" y="16" font-size="12" text-anchor="end">{{date}}</text><text id="time" x="345" y="32" font-size="12" text-anchor="end">{{time}}</text></g><g id="content" transform="translate(0, 40)"><g id="latency"><text x="140" y="24" class="title" font-family="Roboto Black" font-size="15" text-anchor="end">LATENCY</text><text x="140" y="60" class="value" font-family="Roboto Condensed Light" font-size="40" text-anchor="end">{{latency}}</text><text x="142" y="60" class="unit" font-family="Roboto Light" font-size="12">ms</text></g><g id="jitter"><text x="300" y="24" class="title" font-family="Roboto Black" font-size="15" text-anchor="end">JITTER</text><text x="300" y="60" class="value" font-family="Roboto Condensed Light" font-size="40" text-anchor="end">{{jitter}}</text><text x="302" y="60" class="unit" font-family="Roboto Light" font-size="12">ms</text></g><g id="download"><text x="140" y="84" class="title" font-family="Roboto Black" font-size="15" text-anchor="end">DOWNLOAD</text><text x="140" y="120" class="value" font-family="Roboto Condensed Light" font-size="40" text-anchor="end">{{download}}</text><text x="142" y="120" class="unit" font-family="Roboto Light" font-size="12">Mbps</text></g><g id="upload"><text x="300" y="84" class="title" font-family="Roboto Black" font-size="15" text-anchor="end">UPLOAD</text><text x="300" y="120" class="value" font-family="Roboto Condensed Light" font-size="40" text-anchor="end">{{upload}}</text><text x="302" y="120" class="unit" font-family="Roboto Light" font-size="12">Mbps</text></g><g id="host"><text x="140" y="145" class="title" font-family="Roboto Black" font-size="15" text-anchor="end">HOST</text><text x="145" y="145" class="title" font-family="Roboto Condensed Light" font-size="15">{{org}}</text></g></g></svg>