<svg width="350" height="200" xmlns="http://www.w3.org/2000/svg" font-family="Roboto" fill="#fff">
    <rect id="background" height="200" width="350" fill="#1a1a1a"/>

    <g id="header">
        <rect width="350" height="40" fill="#333333"/>

        <g id="logo" transform="translate(4, 4)">
            <ellipse ry="14" rx="14" cx="16" cy="16"/>
            <path d="M14.984 4.047c-8.34.726-13.418 9.488-9.8 16.902.73 1.496 2.234 3.41 2.476 3.149.055-.055.399-.418.77-.809l.675-.707-.433-.488c-5.621-6.39-.836-16.242 7.75-15.938 8.305.293 12.422 10.102 6.758 16.106-.426.453-.48.304.468 1.23l.79.762.242-.234c1.422-1.372 2.625-3.602 3.074-5.696 1.668-7.8-4.75-14.976-12.77-14.277m2.387 8.86c-1.84 1.523-3.375 2.8-3.41 2.831-.063.059 1.89 2.219 2.004 2.219.05 0 5.812-6.746 5.808-6.797-.011-.082-.918-1.027-.988-1.027-.035 0-1.574 1.246-3.414 2.773" fill="#000"/>
        </g>
        <text id="title" x="42" y="28" font-size="24" font-family="Roboto Condensed">Speed Test</text>

        <text id="date" x="345" y="16" text-anchor="end" font-size="12">{{date}}</text>
        <text id="time" x="345" y="32" text-anchor="end" font-size="12">{{time}}</text>
    </g>

    <g id="content" transform="translate(0, 40)">
        <g id="latency">
            <text class="title" x="140" y="24" text-anchor="end" font-size="15px" font-family="Roboto Black">LATENCY</text>
            <text class="value" x="140" y="60" text-anchor="end" font-size="40px" font-family="Roboto Condensed Light">{{latency}}</text>
            <text class="unit" x="142" y="60" font-size="12px" font-family="Roboto Light">ms</text>
        </g>
        <g id="jitter">
            <text class="title" x="300" y="24" text-anchor="end" font-size="15px" font-family="Roboto Black">JITTER</text>
            <text class="value" x="300" y="60" text-anchor="end" font-size="40px" font-family="Roboto Condensed Light">{{jitter}}</text>
            <text class="unit" x="302" y="60" font-size="12px" font-family="Roboto Light">ms</text>
        </g>
        <g id="download">
            <text class="title" x="140" y="84" text-anchor="end" font-size="15px" font-family="Roboto Black">DOWNLOAD</text>
            <text class="value" x="140" y="120" text-anchor="end" font-size="40px" font-family="Roboto Condensed Light">{{download}}</text>
            <text class="unit" x="142" y="120" font-size="12px" font-family="Roboto Light">Mbps</text>
        </g>
        <g id="upload">
            <text class="title" x="300" y="84" text-anchor="end" font-size="15px" font-family="Roboto Black">UPLOAD</text>
            <text class="value" x="300" y="120" text-anchor="end" font-size="40px" font-family="Roboto Condensed Light">{{upload}}</text>
            <text class="unit" x="302" y="120" font-size="12px" font-family="Roboto Light">Mbps</text>
        </g>
        <g id="host">
            <text class="title" x="140" y="145" text-anchor="end" font-size="15px" font-family="Roboto Black">HOST</text>
            <text class="title" x="145" y="145" font-size="15px" font-family="Roboto Condensed Light">{{org}}</text>
        </g>
    </g>
</svg>
