<svg xmlns="http://www.w3.org/2000/svg" width="512" height="512"><g stroke="null"><ellipse cx="256" cy="256" fill="#fff" stroke-width="1.5" rx="224" ry="224"/><path fill-rule="evenodd" d="M239.737 64.757C106.333 76.4 25.043 216.583 82.927 335.176c11.705 23.98 35.754 54.55 39.654 50.408.837-.887 6.371-6.713 12.301-12.945l10.782-11.332-6.891-7.83C48.793 251.225 125.403 93.64 262.731 98.502c132.875 4.704 198.747 161.638 108.156 257.67-6.826 7.236-7.71 4.912 7.49 19.682l12.594 12.239 3.903-3.764c22.753-21.95 42.018-57.645 49.174-91.113 26.7-124.87-75.957-239.66-204.311-228.459m38.198 141.725c-29.441 24.403-53.997 44.815-54.572 45.36-.971.924 30.266 35.466 32.074 35.466.822 0 93.007-107.907 92.91-108.756-.149-1.321-14.636-16.438-15.754-16.438-.622 0-25.219 19.965-54.658 44.368"/></g></svg>