<svg width="512" height="512" xmlns="http://www.w3.org/2000/svg">
 <g>
  <ellipse stroke="null" ry="224" rx="224" id="svg_1" cx="256" cy="256" stroke-width="1.5" fill="#ffffff"/>
  <g stroke="null" id="svgg">
   <path fill-rule="evenodd" fill="#000000" d="m239.736735,64.757322c-133.403576,11.641404 -214.693911,151.825534 -156.809567,270.418724c11.704631,23.979395 35.753794,54.550753 39.654247,50.408292c0.836123,-0.887359 6.370668,-6.712966 12.300927,-12.945189l10.781298,-11.331809l-6.890656,-7.83034c-89.97969,-102.252274 -13.369246,-259.836918 123.957676,-254.974977c132.874867,4.703873 198.747618,161.637714 108.15637,257.669757c-6.826339,7.236224 -7.710427,4.912086 7.489132,19.682137l12.59526,12.23879l3.902634,-3.764188c22.753009,-21.949589 42.01763,-57.644516 49.174275,-91.112326c26.699247,-124.870108 -75.957462,-239.659865 -204.311597,-228.45887m38.197845,141.724471c-29.440902,24.403452 -53.996971,44.814881 -54.571465,45.359941c-0.971298,0.924423 30.266124,35.466002 32.073545,35.466002c0.821951,0 93.006957,-107.906732 92.911026,-108.755937c-0.149347,-1.321227 -14.637057,-16.437937 -15.754431,-16.437937c-0.622459,0 -25.218863,19.965569 -54.658675,44.367931" id="path"/>
  </g>
 </g>
</svg>
